<svg width="401" height="77" viewBox="0 0 401 77" fill="none" xmlns="http://www.w3.org/2000/svg">
<g clip-path="url(#clip0_8_113)">
<path d="M38.1266 74.2297C33.0711 74.2297 28.3345 73.4327 23.9167 71.8386C19.4989 70.2446 15.6504 67.9218 12.3712 64.8703C9.09203 61.7733 6.496 57.9704 4.58314 53.4615C2.71582 48.907 1.78216 43.715 1.78216 37.8853C1.78216 32.7388 2.6475 27.9794 4.37819 23.6071C6.10887 19.1893 8.49995 15.3636 11.5514 12.13C14.6029 8.89631 18.1554 6.3686 22.2088 4.54683C26.3078 2.72505 30.7256 1.81416 35.4622 1.81416C40.1533 1.81416 44.5028 2.63396 48.5107 4.27356C52.5186 5.86761 55.9799 8.21315 58.8948 11.3102C61.8552 14.3616 64.1779 18.1646 65.8631 22.719C67.5938 27.2279 68.5274 32.3744 68.6641 38.1586C63.5175 38.0675 58.371 37.9992 53.2245 37.9536C48.078 37.9081 42.7265 37.8853 37.1701 37.8853C33.2078 37.8853 29.3365 37.9081 25.5563 37.9536C21.8217 37.9992 18.4514 38.0675 15.4455 38.1586C15.7187 42.8952 16.4474 47.1763 17.6316 51.0021C18.8613 54.8278 20.5237 58.107 22.6187 60.8397C24.7593 63.5268 27.3325 65.599 30.3385 67.0565C33.3899 68.5139 36.8285 69.2426 40.6543 69.2426C43.2958 69.2426 45.778 68.9466 48.1008 68.3545C50.4691 67.7169 52.6097 66.8515 54.5225 65.7584C56.4354 64.6654 58.1433 63.3901 59.6463 61.9327C61.1492 60.4298 62.4245 58.8129 63.472 57.0822L64.2918 57.4921L59.2364 69.6525C56.777 70.9277 53.8394 72.0208 50.4235 72.9317C47.0077 73.797 42.9087 74.2297 38.1266 74.2297ZM29.0405 32.5566C33.5949 32.5566 38.1493 32.5566 42.7038 32.5566C47.3037 32.5111 51.4711 32.42 55.2057 32.2833C54.7958 28.321 54.0215 24.7685 52.8829 21.626C51.7443 18.4834 50.2869 15.8191 48.5107 13.6329C46.7344 11.4468 44.6394 9.76165 42.2256 8.5775C39.8117 7.39335 37.1474 6.80127 34.2325 6.80127C31.5909 6.80127 29.1543 7.39335 26.9226 8.5775C24.7365 9.71611 22.8237 11.3785 21.1841 13.5646C19.5445 15.7507 18.2237 18.4379 17.2217 21.626C16.2197 24.7685 15.6276 28.3665 15.4455 32.42C17.495 32.5111 19.6583 32.5566 21.9355 32.5566C24.2128 32.5566 26.5811 32.5566 29.0405 32.5566Z" fill="#A8C0A4"/>
<path d="M368.127 74.2297C363.071 74.2297 358.335 73.4327 353.917 71.8386C349.499 70.2446 345.65 67.9218 342.371 64.8703C339.092 61.7733 336.496 57.9704 334.583 53.4615C332.716 48.907 331.782 43.715 331.782 37.8853C331.782 32.7388 332.648 27.9794 334.378 23.6071C336.109 19.1893 338.5 15.3636 341.551 12.13C344.603 8.89631 348.155 6.3686 352.209 4.54683C356.308 2.72505 360.726 1.81416 365.462 1.81416C370.153 1.81416 374.503 2.63396 378.511 4.27356C382.519 5.86761 385.98 8.21315 388.895 11.3102C391.855 14.3616 394.178 18.1646 395.863 22.719C397.594 27.2279 398.527 32.3744 398.664 38.1586C393.518 38.0675 388.371 37.9992 383.225 37.9536C378.078 37.9081 372.727 37.8853 367.17 37.8853C363.208 37.8853 359.336 37.9081 355.556 37.9536C351.822 37.9992 348.451 38.0675 345.445 38.1586C345.719 42.8952 346.447 47.1763 347.632 51.0021C348.861 54.8278 350.524 58.107 352.619 60.8397C354.759 63.5268 357.333 65.599 360.338 67.0565C363.39 68.5139 366.829 69.2426 370.654 69.2426C373.296 69.2426 375.778 68.9466 378.101 68.3545C380.469 67.7169 382.61 66.8515 384.523 65.7584C386.435 64.6654 388.143 63.3901 389.646 61.9327C391.149 60.4298 392.424 58.8129 393.472 57.0822L394.292 57.4921L389.236 69.6525C386.777 70.9277 383.839 72.0208 380.424 72.9317C377.008 73.797 372.909 74.2297 368.127 74.2297ZM359.04 32.5566C363.595 32.5566 368.149 32.5566 372.704 32.5566C377.304 32.5111 381.471 32.42 385.206 32.2833C384.796 28.321 384.022 24.7685 382.883 21.626C381.744 18.4834 380.287 15.8191 378.511 13.6329C376.734 11.4468 374.639 9.76165 372.226 8.5775C369.812 7.39335 367.147 6.80127 364.233 6.80127C361.591 6.80127 359.154 7.39335 356.923 8.5775C354.737 9.71611 352.824 11.3785 351.184 13.5646C349.544 15.7507 348.224 18.4379 347.222 21.626C346.22 24.7685 345.628 28.3665 345.445 32.42C347.495 32.5111 349.658 32.5566 351.936 32.5566C354.213 32.5566 356.581 32.5566 359.04 32.5566Z" fill="#A8C0A4"/>
<path d="M165.048 74.2297C159.992 74.2297 155.256 73.4327 150.838 71.8386C146.42 70.2446 142.571 67.9218 139.292 64.8703C136.013 61.7733 133.417 57.9704 131.504 53.4615C129.637 48.907 128.703 43.715 128.703 37.8853C128.703 32.7388 129.569 27.9794 131.299 23.6071C133.03 19.1893 135.421 15.3636 138.472 12.13C141.524 8.89631 145.076 6.3686 149.13 4.54683C153.229 2.72505 157.647 1.81416 162.383 1.81416C167.074 1.81416 171.424 2.63396 175.432 4.27356C179.44 5.86761 182.901 8.21315 185.816 11.3102C188.776 14.3616 191.099 18.1646 192.784 22.719C194.515 27.2279 195.448 32.3744 195.585 38.1586C190.439 38.0675 185.292 37.9992 180.146 37.9536C174.999 37.9081 169.648 37.8853 164.091 37.8853C160.129 37.8853 156.258 37.9081 152.477 37.9536C148.743 37.9992 145.372 38.0675 142.367 38.1586C142.64 42.8952 143.368 47.1763 144.553 51.0021C145.782 54.8278 147.445 58.107 149.54 60.8397C151.68 63.5268 154.254 65.599 157.26 67.0565C160.311 68.5139 163.75 69.2426 167.575 69.2426C170.217 69.2426 172.699 68.9466 175.022 68.3545C177.39 67.7169 179.531 66.8515 181.444 65.7584C183.356 64.6654 185.064 63.3901 186.567 61.9327C188.07 60.4298 189.346 58.8129 190.393 57.0822L191.213 57.4921L186.157 69.6525C183.698 70.9277 180.76 72.0208 177.345 72.9317C173.929 73.797 169.83 74.2297 165.048 74.2297ZM155.962 32.5566C160.516 32.5566 165.07 32.5566 169.625 32.5566C174.225 32.5111 178.392 32.42 182.127 32.2833C181.717 28.321 180.943 24.7685 179.804 21.626C178.665 18.4834 177.208 15.8191 175.432 13.6329C173.655 11.4468 171.56 9.76165 169.147 8.5775C166.733 7.39335 164.068 6.80127 161.154 6.80127C158.512 6.80127 156.075 7.39335 153.844 8.5775C151.658 9.71611 149.745 11.3785 148.105 13.5646C146.466 15.7507 145.145 18.4379 144.143 21.626C143.141 24.7685 142.549 28.3665 142.367 32.42C144.416 32.5111 146.579 32.5566 148.857 32.5566C151.134 32.5566 153.502 32.5566 155.962 32.5566ZM249.58 26.9547C249.58 20.9428 248.373 16.525 245.959 13.7012C243.545 10.8775 240.311 9.46562 236.258 9.46562C234.801 9.46562 233.161 9.78443 231.339 10.422C229.517 11.0141 227.65 11.8339 225.737 12.8814C223.824 13.8834 221.912 15.0676 219.999 16.4339C218.086 17.8002 216.287 19.2577 214.602 20.8062L214.465 29.7556V46.2882C214.465 50.1595 214.511 53.5526 214.602 56.4674C214.693 59.3367 214.829 61.8189 215.012 63.9139C215.194 66.0089 215.399 67.7624 215.626 69.1743C215.854 70.5861 216.105 71.7703 216.378 72.7267V73H200.597V72.7267C200.87 71.7703 201.121 70.5861 201.348 69.1743C201.622 67.7624 201.827 66.0089 201.963 63.9139C202.145 61.8189 202.282 59.3367 202.373 56.4674C202.51 53.5526 202.578 50.1595 202.578 46.2882V29.7556C202.578 25.8844 202.51 22.5141 202.373 19.6448C202.282 16.7299 202.145 14.225 201.963 12.13C201.827 10.0349 201.622 8.28146 201.348 6.86959C201.121 5.45771 200.87 4.27356 200.597 3.31713V3.04386H216.378V3.31713C216.014 4.45574 215.718 5.91316 215.49 7.68939C215.308 9.42007 215.103 11.6973 214.875 14.521C216.742 12.9725 218.746 11.424 220.887 9.87552C223.073 8.32701 225.327 6.96068 227.65 5.77652C229.973 4.54683 232.341 3.56762 234.755 2.83891C237.169 2.06466 239.537 1.67753 241.86 1.67753C245.412 1.67753 248.418 2.29238 250.878 3.52208C253.383 4.75177 255.409 6.3686 256.958 8.37255C258.552 10.3765 259.691 12.6765 260.374 15.2725C261.102 17.823 261.467 20.419 261.467 23.0606V46.2882C261.467 50.1595 261.512 53.5526 261.603 56.4674C261.695 59.3367 261.831 61.8189 262.013 63.9139C262.196 66.0089 262.401 67.7624 262.628 69.1743C262.856 70.5861 263.106 71.7703 263.38 72.7267V73H247.599V72.7267C247.872 71.7703 248.122 70.5861 248.35 69.1743C248.623 67.7624 248.828 66.0089 248.965 63.9139C249.147 61.8189 249.284 59.3367 249.375 56.4674C249.511 53.5526 249.58 50.1595 249.58 46.2882V26.9547ZM329.775 58.4486L324.72 70.6089C323.49 71.1555 322.078 71.6564 320.484 72.1119C318.89 72.5673 317.228 72.9545 315.497 73.2733C313.812 73.5921 312.104 73.8198 310.373 73.9564C308.643 74.1386 307.003 74.2297 305.455 74.2297C299.944 74.2297 294.843 73.4327 290.152 71.8386C285.506 70.199 281.475 67.8307 278.06 64.7337C274.689 61.6367 272.048 57.8337 270.135 53.3248C268.222 48.8159 267.266 43.6694 267.266 37.8853C267.266 32.7388 268.245 27.9794 270.203 23.6071C272.207 19.1893 274.963 15.3636 278.469 12.13C282.022 8.89631 286.189 6.3686 290.971 4.54683C295.754 2.72505 300.946 1.81416 306.548 1.81416C309.098 1.81416 311.831 2.04189 314.746 2.49733C317.66 2.90723 320.256 3.45376 322.534 4.13693L327.384 15.7507L326.564 16.229C325.426 14.8171 324.059 13.5418 322.465 12.4032C320.917 11.2191 319.186 10.2171 317.273 9.3973C315.406 8.5775 313.425 7.93988 311.33 7.48444C309.235 7.02899 307.094 6.80127 304.908 6.80127C301.356 6.80127 298.122 7.43889 295.207 8.71413C292.292 9.94383 289.787 11.7428 287.692 14.1111C285.597 16.4794 283.958 19.3943 282.773 22.8557C281.635 26.2715 281.065 30.1655 281.065 34.5378C281.065 39.4566 281.612 44.0338 282.705 48.2694C283.844 52.505 285.506 56.1941 287.692 59.3367C289.924 62.4337 292.702 64.8703 296.027 66.6466C299.397 68.3772 303.337 69.2426 307.846 69.2426C309.941 69.2426 312.013 68.9921 314.062 68.4911C316.157 67.9446 318.116 67.1931 319.938 66.2367C321.805 65.2347 323.513 64.0505 325.061 62.6842C326.61 61.3179 327.908 59.7694 328.955 58.0387L329.775 58.4486Z" fill="#A8C0A4"/>
<path d="M112.149 37.4874L111.121 37.5759C110.778 36.8969 110.214 36.1736 109.431 35.4059C108.696 34.6383 107.716 33.9297 106.492 33.2802C105.316 32.6307 103.871 32.0992 102.157 31.6859C100.491 31.243 98.5564 31.0216 96.3522 31.0216C94.8337 31.0216 93.3887 31.1545 92.0172 31.4202C90.6946 31.6859 89.519 32.0845 88.4904 32.6159C87.5107 33.1178 86.727 33.7526 86.1392 34.5202C85.5514 35.2878 85.2575 36.1883 85.2575 37.2217C85.2575 38.6683 84.9958 40.3937 87.4276 42.4742C88.9461 43.7732 91.0095 45.0326 93.5995 45.5511C95.8527 46.8206 97.7972 47.8356 100.393 49.1346C103.038 50.4337 105.488 51.7918 107.741 53.209C109.994 54.6261 111.855 56.1466 113.325 57.7704C114.843 59.3647 115.603 61.0919 115.603 62.9519C115.603 64.4577 115.162 65.9339 114.28 67.3805C113.398 68.7977 112.027 70.0672 110.165 71.1892C108.353 72.3111 106.002 73.2263 103.112 73.9349C100.271 74.614 96.8665 74.9535 92.8989 74.9535C90.5477 74.9535 88.3434 74.8206 86.2862 74.5549C84.2779 74.2892 82.4165 73.9644 80.7021 73.5806C79.0367 73.1673 77.5182 72.7244 76.1467 72.252C74.8241 71.7501 73.6485 71.2777 72.6199 70.8349L73.3546 62.4205H74.5302C75.0201 63.8081 75.7548 65.0777 76.7345 66.2291C77.7141 67.3805 78.9142 68.3696 80.3347 69.1963C81.8042 69.9934 83.4696 70.6282 85.331 71.1006C87.1923 71.5434 89.2251 71.7649 91.4294 71.7649C95.0541 71.7649 97.9196 71.1596 100.026 69.9491C102.181 68.7387 103.259 67.1591 103.259 65.2105C103.259 63.6457 102.524 62.2138 101.055 60.9148C99.634 59.5862 97.8217 58.3166 95.6174 57.1062C93.4132 55.8957 91.0375 54.6852 88.4904 53.4747C85.9923 52.2642 83.6411 50.9799 81.4368 49.6218C79.2326 48.2342 77.3957 46.7284 75.9262 45.1046C74.5057 43.4512 73.7955 41.5765 73.7955 39.4803C73.7955 37.7679 74.3098 36.2031 75.3384 34.7859C76.4161 33.3392 77.8856 32.114 79.7469 31.1102C81.6573 30.0768 83.9105 29.2797 86.5066 28.7187C89.1027 28.1578 91.9437 27.8773 95.0296 27.8773C99.0952 27.8773 102.475 28.143 105.169 28.6744C107.912 29.1763 109.994 29.6635 111.414 30.1359L112.149 37.4874Z" fill="#A8C0A4"/>
<path d="M120.336 11.9025L119.308 11.9911C118.965 11.312 118.402 10.5887 117.618 9.82103C116.883 9.05341 115.903 8.34483 114.679 7.6953C113.503 7.04576 112.058 6.51433 110.344 6.10099C108.678 5.65813 106.744 5.4367 104.539 5.4367C103.021 5.4367 101.576 5.56956 100.204 5.83528C98.8818 6.10099 97.7062 6.49957 96.6776 7.031C95.6979 7.53291 94.9142 8.16768 94.3264 8.93531C93.7386 9.70294 93.4447 10.6034 93.4447 11.6368C93.4447 13.0834 94.1794 14.4711 95.6489 15.7997C97.1674 17.0987 99.0533 18.3978 101.306 19.6969C103.56 20.9664 105.984 22.2507 108.58 23.5497C111.226 24.8488 113.675 26.2069 115.928 27.6241C118.181 29.0412 120.042 30.5617 121.512 32.1856C123.03 33.7799 123.79 35.507 123.79 37.367C123.79 38.8728 123.349 40.349 122.467 41.7957C121.585 43.2128 120.214 44.4824 118.353 45.6043C116.54 46.7262 114.189 47.6414 111.299 48.35C108.458 49.0291 105.054 49.3686 101.086 49.3686C98.7349 49.3686 96.5306 49.2357 94.4733 48.97C92.465 48.7043 90.6037 48.3795 88.8893 47.9957C87.2238 47.5824 85.7054 47.1395 84.3338 46.6671C83.0113 46.1652 81.8357 45.6928 80.8071 45.25L81.5418 36.8356H82.7174C83.2072 38.2232 83.942 39.4928 84.9216 40.6442C85.9013 41.7957 87.1014 42.7847 88.5219 43.6114C89.9914 44.4085 91.6568 45.0433 93.5182 45.5157C95.3795 45.9586 97.4123 46.18 99.6166 46.18C103.241 46.18 106.107 45.5747 108.213 44.3643C110.368 43.1538 111.446 41.5742 111.446 39.6256C111.446 38.0609 110.711 36.6289 109.242 35.3299C107.821 34.0013 106.009 32.7318 103.805 31.5213C101.6 30.3108 99.2247 29.1003 96.6776 27.8898C94.1794 26.6793 91.8283 25.395 89.624 24.0369C87.4198 22.6493 85.5829 21.1435 84.1134 19.5197C82.6929 17.8664 81.9827 15.9916 81.9827 13.8954C81.9827 12.183 82.497 10.6182 83.5256 9.20103C84.6033 7.75434 86.0727 6.52909 87.9341 5.52527C89.8444 4.49193 92.0977 3.69478 94.6938 3.13382C97.2899 2.57286 100.131 2.29238 103.217 2.29238C107.282 2.29238 110.662 2.5581 113.356 3.08953C116.099 3.59144 118.181 4.07859 119.602 4.55098L120.336 11.9025Z" fill="#A8C0A4"/>
</g>
<defs>
<clipPath id="clip0_8_113">
<rect width="401" height="77" fill="white"/>
</clipPath>
</defs>
</svg>
